<svg width="40" height="40" viewBox="0 0 40 40" fill="none" xmlns="http://www.w3.org/2000/svg">
<g clip-path="url(#clip0_1630_1433)">
<path d="M40 0H0V40H40V0Z" fill="white" fill-opacity="0.01"/>
<path d="M35.0002 3.33325H5.00016C4.07969 3.33325 3.3335 4.07944 3.3335 4.99992V34.9999C3.3335 35.9204 4.07969 36.6666 5.00016 36.6666H35.0002C35.9206 36.6666 36.6668 35.9204 36.6668 34.9999V4.99992C36.6668 4.07944 35.9206 3.33325 35.0002 3.33325Z" stroke="#8494A1" stroke-width="1.66667" stroke-linecap="round" stroke-linejoin="round"/>
<path d="M3.3335 11.6667H36.6668" stroke="#8494A1" stroke-width="1.66667" stroke-linecap="round" stroke-linejoin="round"/>
<path d="M36.6665 9.16675V19.1667" stroke="#8494A1" stroke-width="1.66667" stroke-linecap="round" stroke-linejoin="round"/>
<path d="M10 18.3333H13.3333" stroke="#8494A1" stroke-width="1.66667" stroke-linecap="round" stroke-linejoin="round"/>
<path d="M18.3335 18.3333H21.6668" stroke="#8494A1" stroke-width="1.66667" stroke-linecap="round" stroke-linejoin="round"/>
<path d="M26.6665 18.3333H29.9998" stroke="#8494A1" stroke-width="1.66667" stroke-linecap="round" stroke-linejoin="round"/>
<path d="M10 24.1667H13.3333" stroke="#8494A1" stroke-width="1.66667" stroke-linecap="round" stroke-linejoin="round"/>
<path d="M18.3335 24.1667H21.6668" stroke="#8494A1" stroke-width="1.66667" stroke-linecap="round" stroke-linejoin="round"/>
<path d="M26.6665 24.1667H29.9998" stroke="#8494A1" stroke-width="1.66667" stroke-linecap="round" stroke-linejoin="round"/>
<path d="M10 30H13.3333" stroke="#8494A1" stroke-width="1.66667" stroke-linecap="round" stroke-linejoin="round"/>
<path d="M18.3335 30H21.6668" stroke="#8494A1" stroke-width="1.66667" stroke-linecap="round" stroke-linejoin="round"/>
<path d="M26.6665 30H29.9998" stroke="#8494A1" stroke-width="1.66667" stroke-linecap="round" stroke-linejoin="round"/>
<path d="M3.3335 9.16675V19.1667" stroke="#8494A1" stroke-width="1.66667" stroke-linecap="round" stroke-linejoin="round"/>
</g>
<defs>
<clipPath id="clip0_1630_1433">
<rect width="40" height="40" fill="white"/>
</clipPath>
</defs>
</svg>
