<svg width="130" height="42" viewBox="0 0 130 42" fill="none" xmlns="http://www.w3.org/2000/svg">
<path fill-rule="evenodd" clip-rule="evenodd" d="M69.3262 15.8523C69.8246 15.8599 70.3251 15.8752 70.834 15.91C70.3265 15.8766 69.8239 15.8586 69.3262 15.8523" fill="#1D1D1B"/>
<path fill-rule="evenodd" clip-rule="evenodd" d="M71.416 15.9617C71.8011 15.995 72.1842 16.0242 72.5742 16.0729C72.1849 16.0256 71.8004 15.9943 71.416 15.9617" fill="#1D1D1B"/>
<path fill-rule="evenodd" clip-rule="evenodd" d="M18.5565 0C18.5565 0 19.755 1.3806 18.4849 4.45949C17.2149 7.53769 13.8468 12.6006 16.12 14.3044C16.12 14.3044 16.291 12.4052 18.5489 9.24919C20.8061 6.09314 24.5649 0.0966282 18.5565 0" fill="#1D1D1B"/>
<path fill-rule="evenodd" clip-rule="evenodd" d="M25.3836 19.3498C24.9645 19.3505 24.5717 19.233 24.2783 18.9015C23.6304 18.1715 23.6944 16.7304 24.1615 15.8434C24.3319 15.5188 24.6975 14.9967 25.2849 15.0057C25.3197 15.0064 25.3551 15.0085 25.392 15.0134C25.9196 15.078 26.0885 15.3179 26.1768 15.5195C26.4883 16.2327 26.1567 17.6863 25.3836 19.3498ZM29.6777 17.7982C28.5487 18.5886 27.0618 18.9758 26.7448 19.0523C27.3475 17.5688 27.6555 16.0888 27.2085 15.0683C27.0055 14.6018 26.5481 14.02 25.5289 13.8956C24.5613 13.776 23.7013 14.2953 23.164 15.3193C22.5112 16.5615 22.4341 18.5205 23.4351 19.6488C23.6909 19.9373 24.1379 20.2987 24.8359 20.428C24.4528 21.1239 24.0058 21.8358 23.5067 22.5288C22.0475 24.5552 20.7295 24.8131 20.0948 24.7965C19.5338 24.2007 19.8522 22.0367 20.2053 20.0742C20.6183 17.7801 23.2544 14.419 23.2544 14.419C18.6343 14.3446 17.0284 19.0843 16.9798 22.1354C16.9422 24.4663 18.2804 25.4471 19.3239 25.7878L19.3176 25.8038C19.3413 25.8121 19.4907 25.8615 19.7278 25.8934C19.889 25.9247 20.0364 25.94 20.1581 25.9421C20.2617 25.9442 20.3437 25.931 20.4111 25.9101C21.3878 25.8337 22.8936 25.3081 24.4208 23.1872C24.9492 22.4531 25.5776 21.4638 26.1219 20.4009C26.3826 20.3495 26.6634 20.2709 26.9651 20.1583C27.2641 20.0888 28.9735 19.6668 30.3235 18.7214L29.6777 17.7982Z" fill="#1D1D1B"/>
<path fill-rule="evenodd" clip-rule="evenodd" d="M35.4279 19.5162C35.0212 19.5203 34.6166 19.3994 34.3226 19.0671C33.6754 18.3379 33.7393 16.8961 34.2058 16.0091C34.3768 15.6844 34.7424 15.1623 35.3292 15.1721C35.3639 15.1728 35.3994 15.1749 35.4362 15.1797C35.9638 15.2444 36.1335 15.4842 36.2218 15.6858C36.5332 16.399 36.2016 17.8526 35.4279 19.5162ZM39.7219 17.9646C38.5937 18.7543 37.1067 19.1422 36.789 19.2186C37.3917 17.7345 37.7004 16.2552 37.2534 15.2346C37.0497 14.7682 36.593 14.1863 35.5739 14.0619C34.6048 13.9389 33.7463 14.4616 33.2089 15.4849C32.5554 16.7272 32.479 18.6861 33.48 19.8151C33.7358 20.1036 34.1821 20.4651 34.8801 20.5944C34.4977 21.2902 34.0501 22.0021 33.5509 22.6952C32.0932 24.7216 30.7744 24.9795 30.1397 24.9635C29.578 24.3677 29.8971 22.203 30.2503 20.2405C30.6632 17.9465 33.2986 14.5854 33.2986 14.5854C28.6785 14.511 27.0734 19.2506 27.0247 22.301C26.9872 24.6319 28.3247 25.6128 29.3681 25.9534L29.3625 25.9694C29.3855 25.9784 29.5343 26.0264 29.7685 26.0591C29.9319 26.0904 30.0807 26.1064 30.203 26.1084C30.3073 26.1098 30.3893 26.0973 30.4567 26.0765C31.4334 25.9993 32.9392 25.4738 34.4658 23.3535C34.9934 22.6194 35.6225 21.6302 36.1668 20.5673C36.4268 20.5158 36.7077 20.4366 37.0094 20.3247C37.309 20.2551 39.0177 19.8332 40.3677 18.8877L39.7219 17.9646Z" fill="#1D1D1B"/>
<mask id="mask0_1573_580" style="mask-type:alpha" maskUnits="userSpaceOnUse" x="0" y="2" width="19" height="29">
<path fill-rule="evenodd" clip-rule="evenodd" d="M0 2.26636V30.3823H18.8022V2.26636L0 2.26636L0 2.26636Z" fill="white"/>
</mask>
<g mask="url(#mask0_1573_580)">
<path fill-rule="evenodd" clip-rule="evenodd" d="M18.6911 23.7619C18.5347 23.4261 18.4249 23.089 18.3512 22.7539C16.8628 24.334 14.9177 26.3632 13.533 27.6784C12.9546 28.2283 12.4311 28.587 11.9702 28.822C10.1802 24.7831 16.6835 17.2009 16.6835 17.2009C12.6876 17.1362 10.3936 20.0108 9.15551 22.7414C7.67202 23.7667 5.96052 24.642 4.88023 24.1943C2.6418 23.2662 4.11485 13.4303 7.57053 8.74349C11.0262 4.05737 13.0992 3.62151 14.3644 3.78278C15.6296 3.94406 17.8242 4.65105 16.8329 7.9378L18.1336 5.86203C18.1336 5.86203 17.7943 2.33545 13.5434 2.26732C9.29245 2.1985 3.533 5.81476 0.86912 13.8008C-1.79476 21.7862 2.34843 25.6562 4.15239 25.6847C5.04499 25.6993 6.74536 25.5978 8.35954 24.8992C8.02517 26.0462 7.88752 26.9722 7.88196 27.3413C7.85972 28.7024 8.74536 30.3597 10.1329 30.3819C10.3331 30.3854 10.518 30.3653 10.6946 30.3347C11.583 30.2832 12.842 29.8898 14.3095 28.4953C15.5969 27.2718 17.3613 25.4414 18.8023 23.9176C18.7585 23.8766 18.7203 23.8251 18.6911 23.7619" fill="#1D1D1B"/>
</g>
<path fill-rule="evenodd" clip-rule="evenodd" d="M60.4783 30.3132C59.8039 30.3209 59.1317 30.2298 58.5179 30.0352L58.4456 30.0115C58.3573 29.9837 58.2697 29.9559 58.1919 29.9274C57.7803 29.7661 57.3945 29.5583 57.0462 29.308C56.6597 29.03 56.3093 28.7477 56.0042 28.4738C55.1734 27.4624 54.9545 26.1096 55.3528 24.453C55.9284 22.0616 58.0097 19.4165 60.383 18.0359C61.6726 17.493 63.0705 17.0801 64.5394 16.8062C65.8595 18.843 66.1807 21.5945 66.1592 22.9264C66.1216 25.2649 64.6409 30.3716 60.4783 30.3132ZM75.1414 15.9163C72.3023 15.3484 69.5502 15.1544 66.9683 15.3394C66.1599 14.738 65.3562 14.2083 64.6444 13.7391C62.4845 12.3147 60.9239 11.2851 60.951 9.60284C60.9899 7.1642 63.3437 4.81662 65.1067 4.84512C65.9854 4.87501 66.7299 5.24206 67.2012 5.87814C67.2881 5.99562 67.3604 6.12423 67.4264 6.257C67.9082 7.00917 67.9965 7.94695 67.7991 8.87917C66.6055 11.3998 65.6392 13.9977 67.1435 15.1245C67.1435 15.1245 67.3152 13.226 69.5724 10.07C71.8303 6.91324 75.5884 0.917429 69.5801 0.820801C69.5801 0.820801 70.7785 2.2014 69.5085 5.2796C69.3256 5.72381 69.0976 6.20973 68.8508 6.72068C68.8508 6.7179 69.0107 3.15865 64.3309 3.08357C63.7441 3.07453 63.1957 3.1371 62.684 3.25875C61.6962 3.43741 60.7355 3.81349 59.9103 4.35781C59.683 4.54689 59.473 4.73737 59.2951 4.92298C57.7581 6.53229 57.1394 8.58442 57.2158 9.8107C57.3667 12.2459 59.2999 13.5493 62.3705 14.8632C62.8523 15.0689 63.3027 15.379 63.717 15.787C63.5794 15.8148 63.4438 15.8434 63.3111 15.8739C56.951 17.3407 53.7706 21.021 53.2965 22.4745C52.6152 24.5594 52.3518 27.324 56.3893 30.2236C56.4199 30.2458 56.4532 30.2625 56.4845 30.284C57.4605 30.7568 58.4352 31.0397 59.4744 31.2267C61.138 31.3358 62.7431 31.1655 64.3121 30.599C64.3246 30.5934 64.3406 30.5871 64.3524 30.5816C67.4 29.5847 69.2374 28.2987 69.8136 26.7582C71.017 23.5444 70.9509 19.2052 68.2384 16.4203C70.3851 16.3592 72.6221 16.5615 74.921 17.0203L75.197 17.0759L75.4174 15.9713L75.1414 15.9163Z" fill="#1D1D1B"/>
<path fill-rule="evenodd" clip-rule="evenodd" d="M86.0905 21.9384C84.1384 26.1559 81.9758 25.9182 81.4454 25.7833C80.7571 25.3315 81.0901 23.0458 81.4613 20.9825C81.8743 18.6885 84.5103 15.3266 84.5103 15.3266C79.8896 15.2523 78.2844 19.9919 78.2358 23.043C78.2274 23.5296 78.2803 23.9564 78.3769 24.3318C76.9462 25.9578 75.663 25.807 75.2716 25.7076C74.5827 25.2564 74.9164 22.97 75.2869 20.9067C75.6998 18.6127 78.3366 15.2509 78.3366 15.2509C73.7158 15.1765 72.1107 19.9161 72.0613 22.9672C72.0203 25.5442 73.6588 26.4709 74.7224 26.7065L74.7203 26.7121C74.7662 26.7315 75.1402 26.8803 75.7151 26.89C76.502 26.9026 77.6657 26.6481 78.8788 25.4434C79.444 26.2602 80.2691 26.6433 80.8969 26.7816L80.8941 26.7879C80.94 26.8066 81.314 26.9561 81.8896 26.9651C83.1242 26.9853 85.2855 26.3589 87.1131 22.4118L86.0905 21.9384Z" fill="#1D1D1B"/>
<path fill-rule="evenodd" clip-rule="evenodd" d="M108.132 23.6478C106.39 26.4869 104.656 26.2916 104.189 26.1727C103.501 25.7215 103.834 23.4358 104.206 21.3719C104.618 19.0778 107.254 15.7167 107.254 15.7167C102.633 15.6423 101.029 20.3819 100.979 23.4323C100.938 26.0093 102.576 26.936 103.64 27.1716L103.638 27.1772C103.684 27.1967 104.058 27.3454 104.633 27.3552C105.569 27.3698 107.039 27.0097 108.492 25.1146C108.203 24.7045 108.102 24.181 108.132 23.6478" fill="#1D1D1B"/>
<path fill-rule="evenodd" clip-rule="evenodd" d="M119.504 22.4957C118.796 23.553 117.723 24.8356 116.754 25.6059C116.27 26.0216 115.996 25.8582 115.979 24.8071C115.962 23.7525 117.764 18.65 117.679 17.3487C117.594 16.0473 116.121 15.9757 116.121 15.9757L116.122 15.9771C115.565 15.9333 114.839 16.2614 113.915 16.9761C113.01 17.6775 111.169 20.5006 109.758 22.7904C110.669 19.2013 112.223 15.8499 112.223 15.8499C108.562 15.7908 107.169 19.1492 107.178 23.0226C107.185 26.8961 109.115 27.3737 109.115 27.3737C109.105 26.9169 109.128 26.4373 109.176 25.9444C110.366 23.9145 111.981 21.293 113.204 19.5676C113.697 18.9024 114.047 18.5819 114.536 18.2823C115.235 17.8541 115.013 19.2388 114.494 20.8822C113.976 22.5256 113.919 24.9781 113.919 24.9781L113.922 24.9719C113.849 25.7317 113.903 26.3497 114.145 26.7717C114.327 27.0907 114.607 27.2993 114.955 27.3737C115.069 27.3987 115.185 27.4119 115.301 27.4133C117.433 27.4474 119.938 23.8742 120.441 23.122L119.504 22.4957Z" fill="#1D1D1B"/>
<path fill-rule="evenodd" clip-rule="evenodd" d="M48.0664 9.41222C49.6577 5.83211 51.3233 4.15885 51.7627 4.0365C52.453 5.18005 49.4297 13.7688 45.835 19.3865C45.8836 14.8609 47.3574 11.0062 48.0664 9.41222ZM52.291 3.03337C52.1978 2.98332 52.097 2.94648 51.9886 2.92701C51.951 2.91658 51.9239 2.91033 51.9239 2.91033C50.6247 2.75391 48.9611 5.35175 48.3042 6.47306C46.0519 10.3152 44.3431 15.6305 44.7164 21.0076C41.6153 25.196 40.2597 25.0389 40.1527 25.0194C40.104 24.9972 40.054 24.9902 40.0032 24.9826C39.5771 24.3972 39.7585 22.7351 40.0387 21.0604C41.6223 15.5415 44.8214 15.2947 44.8214 15.2947C43.9622 14.4487 42.6553 14.5794 41.7265 14.8276C41.6132 14.8554 41.5055 14.8901 41.397 14.9242C41.306 14.9541 41.2211 14.9826 41.1433 15.0111C41.0397 15.05 40.9354 15.0869 40.8367 15.1314C40.7025 15.1877 40.6212 15.2273 40.6212 15.2273L40.6198 15.2412C37.9782 16.5822 36.9799 19.992 36.9417 22.3785C36.8923 25.4303 39.2017 26.1713 40.12 26.1859C40.2097 26.1873 40.2806 26.1769 40.3431 26.1609C40.9132 26.1289 41.8009 25.7945 43.0668 24.6211L43.0557 24.6364C43.5597 24.2339 44.2097 23.6312 44.9396 22.8866C45.3831 25.5964 46.396 28.2797 48.1867 30.7566C48.2952 30.9061 48.4634 30.9874 48.6351 30.9902C48.7519 30.9916 48.8708 30.9575 48.9736 30.8831C49.2253 30.701 49.2823 30.3493 49.1002 30.0969C47.1565 27.4087 46.2576 24.5439 45.9587 21.8105C49.2204 18.2568 53.4109 12.6614 54.2034 8.78935C55.0508 4.64477 53.1273 3.38095 52.291 3.03337Z" fill="#1D1D1B"/>
<path fill-rule="evenodd" clip-rule="evenodd" d="M97.0458 19.6689C97.1953 15.3693 98.5842 11.7468 99.2655 10.2147C100.898 6.5421 102.608 4.87648 102.972 4.82226C102.974 4.82295 103.093 4.94252 103.116 5.45625C103.234 8.13334 100.594 15.2637 97.0994 19.6112C97.0813 19.6321 97.0639 19.6488 97.0458 19.6689ZM103.176 3.7093L103.179 3.72181C103.161 3.71903 103.14 3.71486 103.123 3.71277C101.818 3.56609 100.161 6.1542 99.5033 7.2755C97.4038 10.8556 95.7813 15.7155 95.8717 20.7124C94.6906 21.5083 93.6687 21.4499 92.7254 21.3923C91.912 21.037 94.2693 17.9206 94.2902 16.6533C94.3062 15.6432 93.2162 15.45 92.7713 15.4124C92.7108 15.4055 92.651 15.4034 92.5898 15.4034H92.585C92.1762 15.4076 91.7772 15.5584 91.5923 15.6307C90.2527 16.1556 88.9291 18.0561 87.8585 20.0429C88.7004 17.4819 89.6256 15.4861 89.6256 15.4861C85.9642 15.4277 84.5725 18.7854 84.5801 22.6595C84.5885 26.533 86.5175 27.0099 86.5175 27.0099C86.5078 26.5865 86.5273 26.143 86.5683 25.6884L86.578 25.6919C87.317 23.6488 89.5137 18.4851 91.4685 17.003C92.3104 16.7861 91.9955 16.6978 91.0472 19.0308C90.0914 21.3811 91.6764 22.257 91.6764 22.257L91.6778 22.2563C91.8641 22.3849 92.1115 22.4844 92.4466 22.5038L92.6552 22.5163C93.5735 22.5747 94.6781 22.638 95.9301 21.9887C96.1859 25.2678 97.221 28.5643 99.3865 31.5591C99.4942 31.7085 99.6624 31.7892 99.8342 31.7919C99.9516 31.794 100.071 31.7593 100.173 31.6856C100.425 31.5028 100.481 31.151 100.299 30.8987C98.0629 27.8052 97.1988 24.4767 97.0549 21.3853C97.1585 21.2755 97.2606 21.1573 97.3635 21.0405L97.3267 21.0996C98.4362 20.4871 99.4643 19.6835 100.274 18.7214C100.701 18.2146 101.088 17.6682 101.539 17.183C101.605 17.1121 101.674 17.0426 101.742 16.9738C103.532 14.4093 105.016 11.7336 105.455 9.58832C106.525 4.35928 103.176 3.7093 103.176 3.7093Z" fill="#1D1D1B"/>
<path fill-rule="evenodd" clip-rule="evenodd" d="M125.5 23.5444C125.402 23.4714 125.333 23.3748 125.286 23.2712C125.109 23.5437 124.924 23.8155 124.73 24.0845C123.273 26.1088 121.955 26.3695 121.319 26.3535C120.757 25.7585 121.076 23.593 121.429 21.6299C121.841 19.3358 124.478 15.974 124.478 15.974C119.857 15.8996 118.252 20.64 118.203 23.6904C118.167 25.9726 119.448 26.9618 120.481 27.3226C120.503 27.333 120.518 27.3504 120.541 27.3588C120.564 27.3678 120.713 27.4158 120.947 27.4477C121.111 27.4797 121.259 27.4957 121.382 27.4978C121.486 27.4992 121.568 27.4867 121.635 27.4651C122.613 27.3886 124.119 26.8624 125.644 24.7428C125.732 24.6205 125.823 24.4898 125.916 24.3542C125.87 24.0386 125.756 23.7355 125.5 23.5444" fill="#1D1D1B"/>
<path fill-rule="evenodd" clip-rule="evenodd" d="M110.001 3.75928C110.001 3.75928 110.734 5.04047 109.246 7.2796C107.759 9.51943 104.299 13.0022 105.833 14.7075C105.833 14.7075 106.266 13.2302 108.548 11.0836C110.829 8.93688 114.745 4.77561 110.001 3.75928" fill="#1D1D1B"/>
<path fill-rule="evenodd" clip-rule="evenodd" d="M89.7293 27.7743C89.7293 27.7743 90.1165 26.3499 92.7519 25.8188C95.3873 25.287 100.297 25.2703 100.418 22.9805C100.418 22.9805 99.0675 23.7187 95.9358 23.6228C92.8047 23.5276 87.0939 23.7021 89.7293 27.7743" fill="#1D1D1B"/>
<path fill-rule="evenodd" clip-rule="evenodd" d="M115.884 40.1129C114.47 40.0754 114.356 39.5033 114.318 39.3149C113.936 37.3893 117.856 32.7316 122.538 29.6903C121.264 34.5405 119.446 39.3802 115.884 40.1129ZM128.16 16.0914C128.134 16.0935 128.108 16.0963 128.081 16.0991C128.051 16.1019 128.024 16.1033 127.993 16.1067V16.1088C127.383 16.186 126.796 16.4599 126.456 17.1349C125.515 19.0084 124.676 20.7129 123.34 26.414C123.208 26.9764 123.072 27.5527 122.931 28.1345C117.905 31.1383 112.642 36.6566 113.214 39.5338C113.362 40.2846 113.942 41.189 115.855 41.2398H115.895C120.15 41.3086 123.232 34.3702 125.266 28.1853L125.688 26.861C125.693 26.8471 125.697 26.8338 125.701 26.8206C125.703 26.7831 125.695 26.7483 125.705 26.7073C125.997 25.4762 126.316 24.3445 126.7 23.1446C126.992 22.2325 127.128 21.3212 127.552 20.4793C127.59 20.35 127.626 20.2193 127.67 20.0935C127.661 20.1053 127.652 20.1165 127.643 20.129C128.586 17.1641 129.628 16.6392 129.715 16.601L129.976 16.5308C129.976 16.5308 129.736 15.9475 128.16 16.0914Z" fill="#1D1D1B"/>
<path fill-rule="evenodd" clip-rule="evenodd" d="M122.859 16.1669C122.859 16.1669 125.578 15.3286 126.221 16.7578C126.221 16.7578 122.741 16.4248 121.429 21.6295L120.729 19.1075L122.859 16.1669Z" fill="#1D1D1B"/>
</svg>
