<svg width="40" height="40" viewBox="0 0 40 40" fill="none" xmlns="http://www.w3.org/2000/svg">
<g clip-path="url(#clip0_1630_1499)">
<path d="M40 0H0V40H40V0Z" fill="white" fill-opacity="0.01"/>
<path d="M31.5219 3.33325C34.6898 6.32397 36.6668 10.5627 36.6668 15.2631C36.6668 24.3225 29.3227 31.6666 20.2633 31.6666C15.5629 31.6666 11.3242 29.6896 8.3335 26.5217" stroke="#8494A1" stroke-width="1.66667" stroke-linecap="round" stroke-linejoin="round"/>
<path fill-rule="evenodd" clip-rule="evenodd" d="M20.0002 26.6666C26.4435 26.6666 31.6668 21.4433 31.6668 14.9999C31.6668 8.55659 26.4435 3.33325 20.0002 3.33325C13.5568 3.33325 8.3335 8.55659 8.3335 14.9999C8.3335 21.4433 13.5568 26.6666 20.0002 26.6666Z" stroke="#8494A1" stroke-width="1.66667" stroke-linecap="round" stroke-linejoin="round"/>
<path d="M20 31.6667V36.6667" stroke="#8494A1" stroke-width="1.66667" stroke-linecap="round" stroke-linejoin="round"/>
<path d="M15 36.6667H25" stroke="#8494A1" stroke-width="1.66667" stroke-linecap="round" stroke-linejoin="round"/>
</g>
<defs>
<clipPath id="clip0_1630_1499">
<rect width="40" height="40" fill="white"/>
</clipPath>
</defs>
</svg>
