<svg width="110" height="110" viewBox="0 0 110 110" fill="none" xmlns="http://www.w3.org/2000/svg">
<g clip-path="url(#clip0_1573_221)">
<path fill-rule="evenodd" clip-rule="evenodd" d="M55 0C74.551 0 92.6189 10.4607 102.396 27.4416C112.173 44.4224 112.173 65.3439 102.396 82.3248C97.9657 90.0194 91.7378 96.5203 84.2485 101.27L75.4759 87.3548C87.0423 80.0197 93.8284 67.0508 93.2784 53.3355C92.7284 39.6202 84.9216 27.244 72.8025 20.8666C67.3107 17.977 61.2032 16.465 55 16.465V0Z" fill="#23E1A6"/>
<path fill-rule="evenodd" clip-rule="evenodd" d="M84.2487 101.27C76.7594 106.021 68.233 108.872 59.4029 109.588L58.084 93.1778C64.2653 92.6784 70.2332 90.6779 75.476 87.3547L84.2487 101.27Z" fill="#23E1A6"/>
<path fill-rule="evenodd" clip-rule="evenodd" d="M59.4027 109.588C39.9146 111.166 21.0669 102.195 9.96017 86.0596C4.07709 77.5143 0.733303 67.4679 0.317383 57.0923L16.7216 56.4309C17.2716 70.1462 25.0783 82.5224 37.1975 88.8998C43.6169 92.2779 50.8599 93.7624 58.0838 93.1779L59.4027 109.588Z" fill="#23E1A6"/>
<path fill-rule="evenodd" clip-rule="evenodd" d="M0.317521 57.0923C0.0794616 51.1896 0.796377 45.2897 2.43543 39.6147L18.2048 44.1947C17.0583 48.1655 16.5548 52.2983 16.7217 56.431L0.317521 57.0923Z" fill="#DFE6EB"/>
<path fill-rule="evenodd" clip-rule="evenodd" d="M2.43555 39.6147C7.87535 20.7815 22.9196 6.28687 41.9042 1.59436C46.1893 0.535111 50.5865 0 55.0002 0V16.465C41.3132 16.465 28.6686 23.7864 21.8251 35.6741C20.2791 38.3579 19.0642 41.2173 18.205 44.1947L2.43555 39.6147Z" fill="#DFE6EB"/>
<path d="M49.7876 49.878V50.627C49.7876 50.851 49.7642 51.033 49.7176 51.173C49.6709 51.3083 49.6242 51.4227 49.5776 51.516L45.7416 59.412C45.6622 59.5753 45.5502 59.7153 45.4056 59.832C45.2609 59.944 45.0672 60 44.8246 60H43.5716L47.4846 52.265C47.5686 52.1063 47.6526 51.9617 47.7366 51.831C47.8252 51.6957 47.9232 51.5673 48.0306 51.446H43.1936C43.0862 51.446 42.9929 51.4063 42.9136 51.327C42.8342 51.2477 42.7946 51.1543 42.7946 51.047V49.878H49.7876ZM58.0346 54.939C58.0346 55.821 57.939 56.5887 57.7476 57.242C57.561 57.8907 57.2996 58.4273 56.9636 58.852C56.6323 59.2767 56.238 59.594 55.7806 59.804C55.328 60.0093 54.838 60.112 54.3106 60.112C53.7833 60.112 53.2933 60.0093 52.8406 59.804C52.3926 59.594 52.003 59.2767 51.6716 58.852C51.3403 58.4273 51.0813 57.8907 50.8946 57.242C50.708 56.5887 50.6146 55.821 50.6146 54.939C50.6146 54.0523 50.708 53.2847 50.8946 52.636C51.0813 51.9873 51.3403 51.4507 51.6716 51.026C52.003 50.6013 52.3926 50.2863 52.8406 50.081C53.2933 49.871 53.7833 49.766 54.3106 49.766C54.838 49.766 55.328 49.871 55.7806 50.081C56.238 50.2863 56.6323 50.6013 56.9636 51.026C57.2996 51.4507 57.561 51.9873 57.7476 52.636C57.939 53.2847 58.0346 54.0523 58.0346 54.939ZM56.2496 54.939C56.2496 54.2063 56.196 53.5997 56.0886 53.119C55.9813 52.6383 55.8366 52.2557 55.6546 51.971C55.4773 51.6863 55.272 51.488 55.0386 51.376C54.8053 51.2593 54.5626 51.201 54.3106 51.201C54.0633 51.201 53.823 51.2593 53.5896 51.376C53.361 51.488 53.158 51.6863 52.9806 51.971C52.8033 52.2557 52.661 52.6383 52.5536 53.119C52.451 53.5997 52.3996 54.2063 52.3996 54.939C52.3996 55.6717 52.451 56.2783 52.5536 56.759C52.661 57.2397 52.8033 57.6223 52.9806 57.907C53.158 58.1917 53.361 58.3923 53.5896 58.509C53.823 58.621 54.0633 58.677 54.3106 58.677C54.5626 58.677 54.8053 58.621 55.0386 58.509C55.272 58.3923 55.4773 58.1917 55.6546 57.907C55.8366 57.6223 55.9813 57.2397 56.0886 56.759C56.196 56.2783 56.2496 55.6717 56.2496 54.939ZM63.6007 52.328C63.6007 52.7107 63.5354 53.056 63.4047 53.364C63.2787 53.672 63.1084 53.9357 62.8937 54.155C62.6791 54.3697 62.4294 54.5353 62.1447 54.652C61.8601 54.7687 61.5637 54.827 61.2557 54.827C60.9197 54.827 60.6094 54.7687 60.3247 54.652C60.0401 54.5353 59.7927 54.3697 59.5827 54.155C59.3774 53.9357 59.2164 53.672 59.0997 53.364C58.9831 53.056 58.9247 52.7107 58.9247 52.328C58.9247 51.936 58.9831 51.5813 59.0997 51.264C59.2164 50.9467 59.3774 50.6783 59.5827 50.459C59.7927 50.2397 60.0401 50.0717 60.3247 49.955C60.6094 49.8337 60.9197 49.773 61.2557 49.773C61.5917 49.773 61.9021 49.8337 62.1867 49.955C62.4761 50.0717 62.7257 50.2397 62.9357 50.459C63.1457 50.6783 63.3091 50.9467 63.4257 51.264C63.5424 51.5813 63.6007 51.936 63.6007 52.328ZM62.2707 52.328C62.2707 52.0573 62.2427 51.831 62.1867 51.649C62.1354 51.467 62.0631 51.32 61.9697 51.208C61.8811 51.096 61.7737 51.0167 61.6477 50.97C61.5264 50.9187 61.3957 50.893 61.2557 50.893C61.1157 50.893 60.9851 50.9187 60.8637 50.97C60.7424 51.0167 60.6374 51.096 60.5487 51.208C60.4647 51.32 60.3971 51.467 60.3457 51.649C60.2944 51.831 60.2687 52.0573 60.2687 52.328C60.2687 52.5893 60.2944 52.8087 60.3457 52.986C60.3971 53.1587 60.4647 53.2987 60.5487 53.406C60.6374 53.5133 60.7424 53.5903 60.8637 53.637C60.9851 53.6837 61.1157 53.707 61.2557 53.707C61.3957 53.707 61.5264 53.6837 61.6477 53.637C61.7737 53.5903 61.8811 53.5133 61.9697 53.406C62.0631 53.2987 62.1354 53.1587 62.1867 52.986C62.2427 52.8087 62.2707 52.5893 62.2707 52.328ZM66.9677 50.151C67.0284 50.081 67.0984 50.018 67.1777 49.962C67.2617 49.906 67.3784 49.878 67.5277 49.878H68.7877L61.2697 59.741C61.2091 59.8157 61.1367 59.8787 61.0527 59.93C60.9687 59.9767 60.8661 60 60.7447 60H59.4567L66.9677 50.151ZM69.3197 57.62C69.3197 58.0027 69.2544 58.348 69.1237 58.656C68.9977 58.964 68.8274 59.2277 68.6127 59.447C68.3981 59.6617 68.1484 59.8297 67.8637 59.951C67.5791 60.0677 67.2827 60.126 66.9747 60.126C66.6387 60.126 66.3284 60.0677 66.0437 59.951C65.7591 59.8297 65.5117 59.6617 65.3017 59.447C65.0964 59.2277 64.9354 58.964 64.8187 58.656C64.7021 58.348 64.6437 58.0027 64.6437 57.62C64.6437 57.228 64.7021 56.8733 64.8187 56.556C64.9354 56.2387 65.0964 55.9703 65.3017 55.751C65.5117 55.5317 65.7591 55.3637 66.0437 55.247C66.3284 55.1257 66.6387 55.065 66.9747 55.065C67.3107 55.065 67.6211 55.1257 67.9057 55.247C68.1951 55.3637 68.4424 55.5317 68.6477 55.751C68.8577 55.9703 69.0211 56.2387 69.1377 56.556C69.2591 56.8733 69.3197 57.228 69.3197 57.62ZM67.9827 57.62C67.9827 57.3493 67.9571 57.123 67.9057 56.941C67.8544 56.759 67.7821 56.612 67.6887 56.5C67.6001 56.388 67.4927 56.3087 67.3667 56.262C67.2454 56.2107 67.1147 56.185 66.9747 56.185C66.8347 56.185 66.7041 56.2107 66.5827 56.262C66.4614 56.3087 66.3564 56.388 66.2677 56.5C66.1791 56.612 66.1091 56.759 66.0577 56.941C66.0111 57.123 65.9877 57.3493 65.9877 57.62C65.9877 57.8813 66.0111 58.1007 66.0577 58.278C66.1091 58.4553 66.1791 58.5977 66.2677 58.705C66.3564 58.8123 66.4614 58.8893 66.5827 58.936C66.7041 58.9827 66.8347 59.006 66.9747 59.006C67.1147 59.006 67.2454 58.9827 67.3667 58.936C67.4927 58.8893 67.6001 58.8123 67.6887 58.705C67.7821 58.5977 67.8544 58.4553 67.9057 58.278C67.9571 58.1007 67.9827 57.8813 67.9827 57.62Z" fill="#212121"/>
</g>
<defs>
<clipPath id="clip0_1573_221">
<rect width="110" height="110" fill="white"/>
</clipPath>
</defs>
</svg>
